<svg width="2559" height="983" viewBox="0 0 2559 983" fill="none" xmlns="http://www.w3.org/2000/svg">
<path d="M1567.28 142.39L1598.78 119.582L1630.28 142.39L1630.29 142.394L1662.06 165.56V202.936V235.807L1598.78 281.532L1535.5 235.807V202.936V165.56L1567.27 142.394L1567.28 142.39Z" stroke="#14111E" stroke-width="4"/>
<path d="M1632.34 25.2765L1663.85 2.46914L1695.35 25.2765L1695.35 25.2805L1727.13 48.447V85.8227V118.694L1663.85 164.419L1600.56 118.694V85.8227V48.447L1632.34 25.2805L1632.34 25.2765Z" stroke="#14111E" stroke-width="4"/>
<path d="M1696.1 142.39L1727.61 119.582L1759.11 142.39L1759.11 142.394L1790.89 165.56V202.936V235.807L1727.61 281.532L1664.33 235.807V202.936V165.56L1696.1 142.394L1696.1 142.39Z" stroke="#14111E" stroke-width="4"/>
<path d="M1565.28 608.39L1596.78 585.582L1628.28 608.39L1628.29 608.394L1660.06 631.56V668.936V701.807L1596.78 747.532L1533.5 701.807V668.936V631.56L1565.27 608.394L1565.28 608.39Z" stroke="#14111E" stroke-width="4"/>
<path d="M1630.34 491.277L1661.85 468.469L1693.35 491.277L1693.35 491.28L1725.13 514.447V551.823V584.694L1661.85 630.419L1598.56 584.694V551.823V514.447L1630.34 491.28L1630.34 491.277Z" stroke="#14111E" stroke-width="4"/>
<path d="M1694.1 608.39L1725.61 585.582L1757.11 608.39L1757.11 608.394L1788.89 631.56V668.936V701.807L1725.61 747.532L1662.33 701.807V668.936V631.56L1694.1 608.394L1694.1 608.39Z" stroke="#14111E" stroke-width="4"/>
<path d="M547.28 142.39L578.782 119.582L610.284 142.39L610.29 142.394L642.064 165.56V202.936V235.807L578.782 281.532L515.5 235.807V202.936V165.56L547.274 142.394L547.28 142.39Z" stroke="#14111E" stroke-width="4"/>
<path d="M612.343 25.2765L643.845 2.46914L675.348 25.2765L675.353 25.2805L707.127 48.447V85.8227V118.694L643.845 164.419L580.563 118.694V85.8227V48.447L612.338 25.2805L612.343 25.2765Z" stroke="#14111E" stroke-width="4"/>
<path d="M676.105 142.39L707.607 119.582L739.109 142.39L739.115 142.394L770.889 165.56V202.936V235.807L707.607 281.532L644.325 235.807V202.936V165.56L676.099 142.394L676.105 142.39Z" stroke="#14111E" stroke-width="4"/>
<path d="M545.28 608.39L576.782 585.582L608.284 608.39L608.29 608.394L640.064 631.56V668.936V701.807L576.782 747.532L513.5 701.807V668.936V631.56L545.274 608.394L545.28 608.39Z" stroke="#14111E" stroke-width="4"/>
<path d="M610.343 491.277L641.845 468.469L673.348 491.277L673.353 491.28L705.127 514.447V551.823V584.694L641.845 630.419L578.563 584.694V551.823V514.447L610.338 491.28L610.343 491.277Z" stroke="#14111E" stroke-width="4"/>
<path d="M674.105 608.39L705.607 585.582L737.109 608.39L737.115 608.394L768.889 631.56V668.936V701.807L705.607 747.532L642.325 701.807V668.936V631.56L674.099 608.394L674.105 608.39Z" stroke="#14111E" stroke-width="4"/>
<path d="M1822.28 142.39L1853.78 119.582L1885.28 142.39L1885.29 142.394L1917.06 165.56V202.936V235.807L1853.78 281.532L1790.5 235.807V202.936V165.56L1822.27 142.394L1822.28 142.39Z" stroke="#14111E" stroke-width="4"/>
<path d="M1887.34 25.2765L1918.85 2.46914L1950.35 25.2765L1950.35 25.2805L1982.13 48.447V85.8227V118.694L1918.85 164.419L1855.56 118.694V85.8227V48.447L1887.34 25.2805L1887.34 25.2765Z" stroke="#14111E" stroke-width="4"/>
<path d="M1951.1 142.39L1982.61 119.582L2014.11 142.39L2014.11 142.394L2045.89 165.56V202.936V235.807L1982.61 281.532L1919.33 235.807V202.936V165.56L1951.1 142.394L1951.1 142.39Z" stroke="#14111E" stroke-width="4"/>
<path d="M1820.28 608.39L1851.78 585.582L1883.28 608.39L1883.29 608.394L1915.06 631.56V668.936V701.807L1851.78 747.532L1788.5 701.807V668.936V631.56L1820.27 608.394L1820.28 608.39Z" stroke="#14111E" stroke-width="4"/>
<path d="M1885.34 491.277L1916.85 468.469L1948.35 491.277L1948.35 491.28L1980.13 514.447V551.823V584.694L1916.85 630.419L1853.56 584.694V551.823V514.447L1885.34 491.28L1885.34 491.277Z" stroke="#14111E" stroke-width="4"/>
<path d="M1949.1 608.39L1980.61 585.582L2012.11 608.39L2012.11 608.394L2043.89 631.56V668.936V701.807L1980.61 747.532L1917.33 701.807V668.936V631.56L1949.1 608.394L1949.1 608.39Z" stroke="#14111E" stroke-width="4"/>
<path d="M802.28 142.39L833.782 119.582L865.284 142.39L865.29 142.394L897.064 165.56V202.936V235.807L833.782 281.532L770.5 235.807V202.936V165.56L802.274 142.394L802.28 142.39Z" stroke="#14111E" stroke-width="4"/>
<path d="M867.343 25.2765L898.845 2.46914L930.348 25.2765L930.353 25.2805L962.127 48.447V85.8227V118.694L898.845 164.419L835.563 118.694V85.8227V48.447L867.338 25.2805L867.343 25.2765Z" stroke="#14111E" stroke-width="4"/>
<path d="M931.105 142.39L962.607 119.582L994.109 142.39L994.115 142.394L1025.89 165.56V202.936V235.807L962.607 281.532L899.325 235.807V202.936V165.56L931.099 142.394L931.105 142.39Z" stroke="#14111E" stroke-width="4"/>
<path d="M800.28 608.39L831.782 585.582L863.284 608.39L863.29 608.394L895.064 631.56V668.936V701.807L831.782 747.532L768.5 701.807V668.936V631.56L800.274 608.394L800.28 608.39Z" stroke="#14111E" stroke-width="4"/>
<path d="M865.343 491.277L896.845 468.469L928.348 491.277L928.353 491.28L960.127 514.447V551.823V584.694L896.845 630.419L833.563 584.694V551.823V514.447L865.338 491.28L865.343 491.277Z" stroke="#14111E" stroke-width="4"/>
<path d="M929.105 608.39L960.607 585.582L992.109 608.39L992.115 608.394L1023.89 631.56V668.936V701.807L960.607 747.532L897.325 701.807V668.936V631.56L929.099 608.394L929.105 608.39Z" stroke="#14111E" stroke-width="4"/>
<path d="M2077.28 142.39L2108.78 119.582L2140.28 142.39L2140.29 142.394L2172.06 165.56V202.936V235.807L2108.78 281.532L2045.5 235.807V202.936V165.56L2077.27 142.394L2077.28 142.39Z" stroke="#14111E" stroke-width="4"/>
<path d="M2142.34 25.2765L2173.85 2.46914L2205.35 25.2765L2205.35 25.2805L2237.13 48.447V85.8227V118.694L2173.85 164.419L2110.56 118.694V85.8227V48.447L2142.34 25.2805L2142.34 25.2765Z" stroke="#14111E" stroke-width="4"/>
<path d="M2206.1 142.39L2237.61 119.582L2269.11 142.39L2269.11 142.394L2300.89 165.56V202.936V235.807L2237.61 281.532L2174.33 235.807V202.936V165.56L2206.1 142.394L2206.1 142.39Z" stroke="#14111E" stroke-width="4"/>
<path d="M36.2796 142.39L67.7819 119.582L99.2842 142.39L99.2897 142.394L131.064 165.56V202.936V235.807L67.7819 281.532L4.5 235.807V202.936V165.56L36.2742 142.394L36.2796 142.39Z" stroke="#14111E" stroke-width="4"/>
<path d="M101.343 25.2765L132.845 2.46914L164.348 25.2765L164.353 25.2805L196.127 48.447V85.8227V118.694L132.845 164.419L69.5635 118.694V85.8227V48.447L101.338 25.2805L101.343 25.2765Z" stroke="#14111E" stroke-width="4"/>
<path d="M165.105 142.39L196.607 119.582L228.109 142.39L228.115 142.394L259.889 165.56V202.936V235.807L196.607 281.532L133.325 235.807V202.936V165.56L165.099 142.394L165.105 142.39Z" stroke="#14111E" stroke-width="4"/>
<path d="M2075.28 608.39L2106.78 585.582L2138.28 608.39L2138.29 608.394L2170.06 631.56V668.936V701.807L2106.78 747.532L2043.5 701.807V668.936V631.56L2075.27 608.394L2075.28 608.39Z" stroke="#14111E" stroke-width="4"/>
<path d="M2140.34 491.277L2171.85 468.469L2203.35 491.277L2203.35 491.28L2235.13 514.447V551.823V584.694L2171.85 630.419L2108.56 584.694V551.823V514.447L2140.34 491.28L2140.34 491.277Z" stroke="#14111E" stroke-width="4"/>
<path d="M2204.1 608.39L2235.61 585.582L2267.11 608.39L2267.11 608.394L2298.89 631.56V668.936V701.807L2235.61 747.532L2172.33 701.807V668.936V631.56L2204.1 608.394L2204.1 608.39Z" stroke="#14111E" stroke-width="4"/>
<path d="M34.2796 608.39L65.7819 585.582L97.2842 608.39L97.2897 608.394L129.064 631.56V668.936V701.807L65.7819 747.532L2.5 701.807V668.936V631.56L34.2742 608.394L34.2796 608.39Z" stroke="#14111E" stroke-width="4"/>
<path d="M99.3431 491.277L130.845 468.469L162.348 491.277L162.353 491.28L194.127 514.447V551.823V584.694L130.845 630.419L67.5635 584.694V551.823V514.447L99.3376 491.28L99.3431 491.277Z" stroke="#14111E" stroke-width="4"/>
<path d="M163.105 608.39L194.607 585.582L226.109 608.39L226.115 608.394L257.889 631.56V668.936V701.807L194.607 747.532L131.325 701.807V668.936V631.56L163.099 608.394L163.105 608.39Z" stroke="#14111E" stroke-width="4"/>
<path d="M1057.28 142.39L1088.78 119.582L1120.28 142.39L1120.29 142.394L1152.06 165.56V202.936V235.807L1088.78 281.532L1025.5 235.807V202.936V165.56L1057.27 142.394L1057.28 142.39Z" stroke="#14111E" stroke-width="4"/>
<path d="M1122.34 25.2765L1153.85 2.46914L1185.35 25.2765L1185.35 25.2805L1217.13 48.447V85.8227V118.694L1153.85 164.419L1090.56 118.694V85.8227V48.447L1122.34 25.2805L1122.34 25.2765Z" stroke="#14111E" stroke-width="4"/>
<path d="M1186.1 142.39L1217.61 119.582L1249.11 142.39L1249.11 142.394L1280.89 165.56V202.936V235.807L1217.61 281.532L1154.33 235.807V202.936V165.56L1186.1 142.394L1186.1 142.39Z" stroke="#14111E" stroke-width="4"/>
<path d="M1055.28 608.39L1086.78 585.582L1118.28 608.39L1118.29 608.394L1150.06 631.56V668.936V701.807L1086.78 747.532L1023.5 701.807V668.936V631.56L1055.27 608.394L1055.28 608.39Z" stroke="#14111E" stroke-width="4"/>
<path d="M1120.34 491.277L1151.85 468.469L1183.35 491.277L1183.35 491.28L1215.13 514.447V551.823V584.694L1151.85 630.419L1088.56 584.694V551.823V514.447L1120.34 491.28L1120.34 491.277Z" stroke="#14111E" stroke-width="4"/>
<path d="M1184.1 608.39L1215.61 585.582L1247.11 608.39L1247.11 608.394L1278.89 631.56V668.936V701.807L1215.61 747.532L1152.33 701.807V668.936V631.56L1184.1 608.394L1184.1 608.39Z" stroke="#14111E" stroke-width="4"/>
<path d="M2331.28 142.39L2362.78 119.582L2394.28 142.39L2394.29 142.394L2426.06 165.56V202.936V235.807L2362.78 281.532L2299.5 235.807V202.936V165.56L2331.27 142.394L2331.28 142.39Z" stroke="#14111E" stroke-width="4"/>
<path d="M2396.34 25.2765L2427.85 2.46914L2459.35 25.2765L2459.35 25.2805L2491.13 48.447V85.8227V118.694L2427.85 164.419L2364.56 118.694V85.8227V48.447L2396.34 25.2805L2396.34 25.2765Z" stroke="#14111E" stroke-width="4"/>
<path d="M2460.1 142.39L2491.61 119.582L2523.11 142.39L2523.11 142.394L2554.89 165.56V202.936V235.807L2491.61 281.532L2428.33 235.807V202.936V165.56L2460.1 142.394L2460.1 142.39Z" stroke="#14111E" stroke-width="4"/>
<path d="M290.28 142.39L321.782 119.582L353.284 142.39L353.29 142.394L385.064 165.56V202.936V235.807L321.782 281.532L258.5 235.807V202.936V165.56L290.274 142.394L290.28 142.39Z" stroke="#14111E" stroke-width="4"/>
<path d="M355.343 25.2765L386.845 2.46914L418.348 25.2765L418.353 25.2805L450.127 48.447V85.8227V118.694L386.845 164.419L323.563 118.694V85.8227V48.447L355.338 25.2805L355.343 25.2765Z" stroke="#14111E" stroke-width="4"/>
<path d="M419.105 142.39L450.607 119.582L482.109 142.39L482.115 142.394L513.889 165.56V202.936V235.807L450.607 281.532L387.325 235.807V202.936V165.56L419.099 142.394L419.105 142.39Z" stroke="#14111E" stroke-width="4"/>
<path d="M2329.28 608.39L2360.78 585.582L2392.28 608.39L2392.29 608.394L2424.06 631.56V668.936V701.807L2360.78 747.532L2297.5 701.807V668.936V631.56L2329.27 608.394L2329.28 608.39Z" stroke="#14111E" stroke-width="4"/>
<path d="M2394.34 491.277L2425.85 468.469L2457.35 491.277L2457.35 491.28L2489.13 514.447V551.823V584.694L2425.85 630.419L2362.56 584.694V551.823V514.447L2394.34 491.28L2394.34 491.277Z" stroke="#14111E" stroke-width="4"/>
<path d="M2458.1 608.39L2489.61 585.582L2521.11 608.39L2521.11 608.394L2552.89 631.56V668.936V701.807L2489.61 747.532L2426.33 701.807V668.936V631.56L2458.1 608.394L2458.1 608.39Z" stroke="#14111E" stroke-width="4"/>
<path d="M288.28 608.39L319.782 585.582L351.284 608.39L351.29 608.394L383.064 631.56V668.936V701.807L319.782 747.532L256.5 701.807V668.936V631.56L288.274 608.394L288.28 608.39Z" stroke="#14111E" stroke-width="4"/>
<path d="M353.343 491.277L384.845 468.469L416.348 491.277L416.353 491.28L448.127 514.447V551.823V584.694L384.845 630.419L321.563 584.694V551.823V514.447L353.338 491.28L353.343 491.277Z" stroke="#14111E" stroke-width="4"/>
<path d="M417.105 608.39L448.607 585.582L480.109 608.39L480.115 608.394L511.889 631.56V668.936V701.807L448.607 747.532L385.325 701.807V668.936V631.56L417.099 608.394L417.105 608.39Z" stroke="#14111E" stroke-width="4"/>
<path d="M1311.28 142.39L1342.78 119.582L1374.28 142.39L1374.29 142.394L1406.06 165.56V202.936V235.807L1342.78 281.532L1279.5 235.807V202.936V165.56L1311.27 142.394L1311.28 142.39Z" stroke="#14111E" stroke-width="4"/>
<path d="M1376.34 25.2765L1407.85 2.46914L1439.35 25.2765L1439.35 25.2805L1471.13 48.447V85.8227V118.694L1407.85 164.419L1344.56 118.694V85.8227V48.447L1376.34 25.2805L1376.34 25.2765Z" stroke="#14111E" stroke-width="4"/>
<path d="M1440.1 142.39L1471.61 119.582L1503.11 142.39L1503.11 142.394L1534.89 165.56V202.936V235.807L1471.61 281.532L1408.33 235.807V202.936V165.56L1440.1 142.394L1440.1 142.39Z" stroke="#14111E" stroke-width="4"/>
<path d="M1309.28 608.39L1340.78 585.582L1372.28 608.39L1372.29 608.394L1404.06 631.56V668.936V701.807L1340.78 747.532L1277.5 701.807V668.936V631.56L1309.27 608.394L1309.28 608.39Z" stroke="#14111E" stroke-width="4"/>
<path d="M1374.34 491.277L1405.85 468.469L1437.35 491.277L1437.35 491.28L1469.13 514.447V551.823V584.694L1405.85 630.419L1342.56 584.694V551.823V514.447L1374.34 491.28L1374.34 491.277Z" stroke="#14111E" stroke-width="4"/>
<path d="M1438.1 608.39L1469.61 585.582L1501.11 608.39L1501.11 608.394L1532.89 631.56V668.936V701.807L1469.61 747.532L1406.33 701.807V668.936V631.56L1438.1 608.394L1438.1 608.39Z" stroke="#14111E" stroke-width="4"/>
<path d="M1566.28 375.39L1597.78 352.582L1629.28 375.39L1629.29 375.394L1661.06 398.56V435.936V468.807L1597.78 514.532L1534.5 468.807V435.936V398.56L1566.27 375.394L1566.28 375.39Z" stroke="#14111E" stroke-width="4"/>
<path d="M1631.34 258.277L1662.85 235.469L1694.35 258.277L1694.35 258.28L1726.13 281.447V318.823V351.694L1662.85 397.419L1599.56 351.694V318.823V281.447L1631.34 258.28L1631.34 258.277Z" stroke="#14111E" stroke-width="4"/>
<path d="M1695.1 375.39L1726.61 352.582L1758.11 375.39L1758.11 375.394L1789.89 398.56V435.936V468.807L1726.61 514.532L1663.33 468.807V435.936V398.56L1695.1 375.394L1695.1 375.39Z" stroke="#14111E" stroke-width="4"/>
<path d="M1564.28 841.39L1595.78 818.582L1627.28 841.39L1627.29 841.394L1659.06 864.56V901.936V934.807L1595.78 980.532L1532.5 934.807V901.936V864.56L1564.27 841.394L1564.28 841.39Z" stroke="#14111E" stroke-width="4"/>
<path d="M1629.34 724.277L1660.85 701.469L1692.35 724.277L1692.35 724.28L1724.13 747.447V784.823V817.694L1660.85 863.419L1597.56 817.694V784.823V747.447L1629.34 724.28L1629.34 724.277Z" stroke="#14111E" stroke-width="4"/>
<path d="M1693.1 841.39L1724.61 818.582L1756.11 841.39L1756.11 841.394L1787.89 864.56V901.936V934.807L1724.61 980.532L1661.33 934.807V901.936V864.56L1693.1 841.394L1693.1 841.39Z" stroke="#14111E" stroke-width="4"/>
<path d="M546.28 375.39L577.782 352.582L609.284 375.39L609.29 375.394L641.064 398.56V435.936V468.807L577.782 514.532L514.5 468.807V435.936V398.56L546.274 375.394L546.28 375.39Z" stroke="#14111E" stroke-width="4"/>
<path d="M611.343 258.277L642.845 235.469L674.348 258.277L674.353 258.28L706.127 281.447V318.823V351.694L642.845 397.419L579.563 351.694V318.823V281.447L611.338 258.28L611.343 258.277Z" stroke="#14111E" stroke-width="4"/>
<path d="M675.105 375.39L706.607 352.582L738.109 375.39L738.115 375.394L769.889 398.56V435.936V468.807L706.607 514.532L643.325 468.807V435.936V398.56L675.099 375.394L675.105 375.39Z" stroke="#14111E" stroke-width="4"/>
<path d="M544.28 841.39L575.782 818.582L607.284 841.39L607.29 841.394L639.064 864.56V901.936V934.807L575.782 980.532L512.5 934.807V901.936V864.56L544.274 841.394L544.28 841.39Z" stroke="#14111E" stroke-width="4"/>
<path d="M609.343 724.277L640.845 701.469L672.348 724.277L672.353 724.28L704.127 747.447V784.823V817.694L640.845 863.419L577.563 817.694V784.823V747.447L609.338 724.28L609.343 724.277Z" stroke="#14111E" stroke-width="4"/>
<path d="M673.105 841.39L704.607 818.582L736.109 841.39L736.115 841.394L767.889 864.56V901.936V934.807L704.607 980.532L641.325 934.807V901.936V864.56L673.099 841.394L673.105 841.39Z" stroke="#14111E" stroke-width="4"/>
<path d="M2077.28 375.39L2108.78 352.582L2140.28 375.39L2140.29 375.394L2172.06 398.56V435.936V468.807L2108.78 514.532L2045.5 468.807V435.936V398.56L2077.27 375.394L2077.28 375.39Z" stroke="#14111E" stroke-width="4"/>
<path d="M2142.34 258.277L2173.85 235.469L2205.35 258.277L2205.35 258.28L2237.13 281.447V318.823V351.694L2173.85 397.419L2110.56 351.694V318.823V281.447L2142.34 258.28L2142.34 258.277Z" stroke="#14111E" stroke-width="4"/>
<path d="M2206.1 375.39L2237.61 352.582L2269.11 375.39L2269.11 375.394L2300.89 398.56V435.936V468.807L2237.61 514.532L2174.33 468.807V435.936V398.56L2206.1 375.394L2206.1 375.39Z" stroke="#14111E" stroke-width="4"/>
<path d="M36.2796 375.39L67.7819 352.582L99.2842 375.39L99.2897 375.394L131.064 398.56V435.936V468.807L67.7819 514.532L4.5 468.807V435.936V398.56L36.2742 375.394L36.2796 375.39Z" stroke="#14111E" stroke-width="4"/>
<path d="M101.343 258.277L132.845 235.469L164.348 258.277L164.353 258.28L196.127 281.447V318.823V351.694L132.845 397.419L69.5635 351.694V318.823V281.447L101.338 258.28L101.343 258.277Z" stroke="#14111E" stroke-width="4"/>
<path d="M165.105 375.39L196.607 352.582L228.109 375.39L228.115 375.394L259.889 398.56V435.936V468.807L196.607 514.532L133.325 468.807V435.936V398.56L165.099 375.394L165.105 375.39Z" stroke="#14111E" stroke-width="4"/>
<path d="M2075.28 841.39L2106.78 818.582L2138.28 841.39L2138.29 841.394L2170.06 864.56V901.936V934.807L2106.78 980.532L2043.5 934.807V901.936V864.56L2075.27 841.394L2075.28 841.39Z" stroke="#14111E" stroke-width="4"/>
<path d="M2140.34 724.277L2171.85 701.469L2203.35 724.277L2203.35 724.28L2235.13 747.447V784.823V817.694L2171.85 863.419L2108.56 817.694V784.823V747.447L2140.34 724.28L2140.34 724.277Z" stroke="#14111E" stroke-width="4"/>
<path d="M2204.1 841.39L2235.61 818.582L2267.11 841.39L2267.11 841.394L2298.89 864.56V901.936V934.807L2235.61 980.532L2172.33 934.807V901.936V864.56L2204.1 841.394L2204.1 841.39Z" stroke="#14111E" stroke-width="4"/>
<path d="M34.2796 841.39L65.7819 818.582L97.2842 841.39L97.2897 841.394L129.064 864.56V901.936V934.807L65.7819 980.532L2.5 934.807V901.936V864.56L34.2742 841.394L34.2796 841.39Z" stroke="#14111E" stroke-width="4"/>
<path d="M99.3431 724.277L130.845 701.469L162.348 724.277L162.353 724.28L194.127 747.447V784.823V817.694L130.845 863.419L67.5635 817.694V784.823V747.447L99.3376 724.28L99.3431 724.277Z" stroke="#14111E" stroke-width="4"/>
<path d="M163.105 841.39L194.607 818.582L226.109 841.39L226.115 841.394L257.889 864.56V901.936V934.807L194.607 980.532L131.325 934.807V901.936V864.56L163.099 841.394L163.105 841.39Z" stroke="#14111E" stroke-width="4"/>
<path d="M1057.28 375.39L1088.78 352.582L1120.28 375.39L1120.29 375.394L1152.06 398.56V435.936V468.807L1088.78 514.532L1025.5 468.807V435.936V398.56L1057.27 375.394L1057.28 375.39Z" stroke="#14111E" stroke-width="4"/>
<path d="M1122.34 258.277L1153.85 235.469L1185.35 258.277L1185.35 258.28L1217.13 281.447V318.823V351.694L1153.85 397.419L1090.56 351.694V318.823V281.447L1122.34 258.28L1122.34 258.277Z" stroke="#14111E" stroke-width="4"/>
<path d="M1186.1 375.39L1217.61 352.582L1249.11 375.39L1249.11 375.394L1280.89 398.56V435.936V468.807L1217.61 514.532L1154.33 468.807V435.936V398.56L1186.1 375.394L1186.1 375.39Z" stroke="#14111E" stroke-width="4"/>
<path d="M1055.28 841.39L1086.78 818.582L1118.28 841.39L1118.29 841.394L1150.06 864.56V901.936V934.807L1086.78 980.532L1023.5 934.807V901.936V864.56L1055.27 841.394L1055.28 841.39Z" stroke="#14111E" stroke-width="4"/>
<path d="M1120.34 724.277L1151.85 701.469L1183.35 724.277L1183.35 724.28L1215.13 747.447V784.823V817.694L1151.85 863.419L1088.56 817.694V784.823V747.447L1120.34 724.28L1120.34 724.277Z" stroke="#14111E" stroke-width="4"/>
<path d="M1184.1 841.39L1215.61 818.582L1247.11 841.39L1247.11 841.394L1278.89 864.56V901.936V934.807L1215.61 980.532L1152.33 934.807V901.936V864.56L1184.1 841.394L1184.1 841.39Z" stroke="#14111E" stroke-width="4"/>
<path d="M1822.28 375.39L1853.78 352.582L1885.28 375.39L1885.29 375.394L1917.06 398.56V435.936V468.807L1853.78 514.532L1790.5 468.807V435.936V398.56L1822.27 375.394L1822.28 375.39Z" stroke="#14111E" stroke-width="4"/>
<path d="M1887.34 258.277L1918.85 235.469L1950.35 258.277L1950.35 258.28L1982.13 281.447V318.823V351.694L1918.85 397.419L1855.56 351.694V318.823V281.447L1887.34 258.28L1887.34 258.277Z" stroke="#14111E" stroke-width="4"/>
<path d="M1951.1 375.39L1982.61 352.582L2014.11 375.39L2014.11 375.394L2045.89 398.56V435.936V468.807L1982.61 514.532L1919.33 468.807V435.936V398.56L1951.1 375.394L1951.1 375.39Z" stroke="#14111E" stroke-width="4"/>
<path d="M1820.28 841.39L1851.78 818.582L1883.28 841.39L1883.29 841.394L1915.06 864.56V901.936V934.807L1851.78 980.532L1788.5 934.807V901.936V864.56L1820.27 841.394L1820.28 841.39Z" stroke="#14111E" stroke-width="4"/>
<path d="M1885.34 724.277L1916.85 701.469L1948.35 724.277L1948.35 724.28L1980.13 747.447V784.823V817.694L1916.85 863.419L1853.56 817.694V784.823V747.447L1885.34 724.28L1885.34 724.277Z" stroke="#14111E" stroke-width="4"/>
<path d="M1949.1 841.39L1980.61 818.582L2012.11 841.39L2012.11 841.394L2043.89 864.56V901.936V934.807L1980.61 980.532L1917.33 934.807V901.936V864.56L1949.1 841.394L1949.1 841.39Z" stroke="#14111E" stroke-width="4"/>
<path d="M802.28 375.39L833.782 352.582L865.284 375.39L865.29 375.394L897.064 398.56V435.936V468.807L833.782 514.532L770.5 468.807V435.936V398.56L802.274 375.394L802.28 375.39Z" stroke="#14111E" stroke-width="4"/>
<path d="M867.343 258.277L898.845 235.469L930.348 258.277L930.353 258.28L962.127 281.447V318.823V351.694L898.845 397.419L835.563 351.694V318.823V281.447L867.338 258.28L867.343 258.277Z" stroke="#14111E" stroke-width="4"/>
<path d="M931.105 375.39L962.607 352.582L994.109 375.39L994.115 375.394L1025.89 398.56V435.936V468.807L962.607 514.532L899.325 468.807V435.936V398.56L931.099 375.394L931.105 375.39Z" stroke="#14111E" stroke-width="4"/>
<path d="M800.28 841.39L831.782 818.582L863.284 841.39L863.29 841.394L895.064 864.56V901.936V934.807L831.782 980.532L768.5 934.807V901.936V864.56L800.274 841.394L800.28 841.39Z" stroke="#14111E" stroke-width="4"/>
<path d="M865.343 724.277L896.845 701.469L928.348 724.277L928.353 724.28L960.127 747.447V784.823V817.694L896.845 863.419L833.563 817.694V784.823V747.447L865.338 724.28L865.343 724.277Z" stroke="#14111E" stroke-width="4"/>
<path d="M929.105 841.39L960.607 818.582L992.109 841.39L992.115 841.394L1023.89 864.56V901.936V934.807L960.607 980.532L897.325 934.807V901.936V864.56L929.099 841.394L929.105 841.39Z" stroke="#14111E" stroke-width="4"/>
<path d="M2333.28 375.39L2364.78 352.582L2396.28 375.39L2396.29 375.394L2428.06 398.56V435.936V468.807L2364.78 514.532L2301.5 468.807V435.936V398.56L2333.27 375.394L2333.28 375.39Z" stroke="#14111E" stroke-width="4"/>
<path d="M2398.34 258.277L2429.85 235.469L2461.35 258.277L2461.35 258.28L2493.13 281.447V318.823V351.694L2429.85 397.419L2366.56 351.694V318.823V281.447L2398.34 258.28L2398.34 258.277Z" stroke="#14111E" stroke-width="4"/>
<path d="M2462.1 375.39L2493.61 352.582L2525.11 375.39L2525.11 375.394L2556.89 398.56V435.936V468.807L2493.61 514.532L2430.33 468.807V435.936V398.56L2462.1 375.394L2462.1 375.39Z" stroke="#14111E" stroke-width="4"/>
<path d="M292.28 375.39L323.782 352.582L355.284 375.39L355.29 375.394L387.064 398.56V435.936V468.807L323.782 514.532L260.5 468.807V435.936V398.56L292.274 375.394L292.28 375.39Z" stroke="#14111E" stroke-width="4"/>
<path d="M357.343 258.277L388.845 235.469L420.348 258.277L420.353 258.28L452.127 281.447V318.823V351.694L388.845 397.419L325.563 351.694V318.823V281.447L357.338 258.28L357.343 258.277Z" stroke="#14111E" stroke-width="4"/>
<path d="M421.105 375.39L452.607 352.582L484.109 375.39L484.115 375.394L515.889 398.56V435.936V468.807L452.607 514.532L389.325 468.807V435.936V398.56L421.099 375.394L421.105 375.39Z" stroke="#14111E" stroke-width="4"/>
<path d="M2331.28 841.39L2362.78 818.582L2394.28 841.39L2394.29 841.394L2426.06 864.56V901.936V934.807L2362.78 980.532L2299.5 934.807V901.936V864.56L2331.27 841.394L2331.28 841.39Z" stroke="#14111E" stroke-width="4"/>
<path d="M2396.34 724.277L2427.85 701.469L2459.35 724.277L2459.35 724.28L2491.13 747.447V784.823V817.694L2427.85 863.419L2364.56 817.694V784.823V747.447L2396.34 724.28L2396.34 724.277Z" stroke="#14111E" stroke-width="4"/>
<path d="M2460.1 841.39L2491.61 818.582L2523.11 841.39L2523.11 841.394L2554.89 864.56V901.936V934.807L2491.61 980.532L2428.33 934.807V901.936V864.56L2460.1 841.394L2460.1 841.39Z" stroke="#14111E" stroke-width="4"/>
<path d="M290.28 841.39L321.782 818.582L353.284 841.39L353.29 841.394L385.064 864.56V901.936V934.807L321.782 980.532L258.5 934.807V901.936V864.56L290.274 841.394L290.28 841.39Z" stroke="#14111E" stroke-width="4"/>
<path d="M355.343 724.277L386.845 701.469L418.348 724.277L418.353 724.28L450.127 747.447V784.823V817.694L386.845 863.419L323.563 817.694V784.823V747.447L355.338 724.28L355.343 724.277Z" stroke="#14111E" stroke-width="4"/>
<path d="M419.105 841.39L450.607 818.582L482.109 841.39L482.115 841.394L513.889 864.56V901.936V934.807L450.607 980.532L387.325 934.807V901.936V864.56L419.099 841.394L419.105 841.39Z" stroke="#14111E" stroke-width="4"/>
<path d="M1313.28 375.39L1344.78 352.582L1376.28 375.39L1376.29 375.394L1408.06 398.56V435.936V468.807L1344.78 514.532L1281.5 468.807V435.936V398.56L1313.27 375.394L1313.28 375.39Z" stroke="#14111E" stroke-width="4"/>
<path d="M1378.34 258.277L1409.85 235.469L1441.35 258.277L1441.35 258.28L1473.13 281.447V318.823V351.694L1409.85 397.419L1346.56 351.694V318.823V281.447L1378.34 258.28L1378.34 258.277Z" stroke="#14111E" stroke-width="4"/>
<path d="M1442.1 375.39L1473.61 352.582L1505.11 375.39L1505.11 375.394L1536.89 398.56V435.936V468.807L1473.61 514.532L1410.33 468.807V435.936V398.56L1442.1 375.394L1442.1 375.39Z" stroke="#14111E" stroke-width="4"/>
<path d="M1311.28 841.39L1342.78 818.582L1374.28 841.39L1374.29 841.394L1406.06 864.56V901.936V934.807L1342.78 980.532L1279.5 934.807V901.936V864.56L1311.27 841.394L1311.28 841.39Z" stroke="#14111E" stroke-width="4"/>
<path d="M1376.34 724.277L1407.85 701.469L1439.35 724.277L1439.35 724.28L1471.13 747.447V784.823V817.694L1407.85 863.419L1344.56 817.694V784.823V747.447L1376.34 724.28L1376.34 724.277Z" stroke="#14111E" stroke-width="4"/>
<path d="M1440.1 841.39L1471.61 818.582L1503.11 841.39L1503.11 841.394L1534.89 864.56V901.936V934.807L1471.61 980.532L1408.33 934.807V901.936V864.56L1440.1 841.394L1440.1 841.39Z" stroke="#14111E" stroke-width="4"/>
</svg>
